<?xml version="1.0" encoding="utf-8"?>
<!-- Generator: Adobe Illustrator 25.4.1, SVG Export Plug-In . SVG Version: 6.00 Build 0)  -->
<svg version="1.1" id="Layer_1" xmlns="http://www.w3.org/2000/svg" xmlns:xlink="http://www.w3.org/1999/xlink" x="0px" y="0px"
	 viewBox="0 0 229.5 141.6" style="enable-background:new 0 0 229.5 141.6;" xml:space="preserve">
<style type="text/css">
	.st0{fill:#F26826;}
	.st1{opacity:0.7;fill:#F26826;enable-background:new    ;}
	.st2{opacity:0.8;fill:#F26826;enable-background:new    ;}
	.st3{opacity:0.6;fill:#F26826;enable-background:new    ;}
	.st4{opacity:0.4;fill:#F26826;enable-background:new    ;}
	.st5{opacity:0.5;fill:#F26826;enable-background:new    ;}
	.st6{opacity:0.9;fill:#F26826;enable-background:new    ;}
</style>
<g>
	<path class="st0" d="M83.9,68.3c0,5.9-1.1,11-3.4,15.2c-2.3,4.3-5.2,7.7-8.8,10.5c-3.6,2.7-7.6,4.7-12,6s-8.7,1.9-12.9,1.9
		c-4.5,0-8.7-0.6-12.7-1.8s-7.6-3-10.8-5.3c-3.2-2.4-5.9-5.4-8.1-9.1c-2.2-3.7-3.8-8.1-4.8-13.2l25.4-6.9c0.7,3.1,2.1,5.5,4.1,7.2
		s4.5,2.6,7.5,2.6c1,0,2-0.1,3-0.4c1-0.3,2-0.7,2.8-1.3s1.5-1.3,2.1-2.2s0.8-1.9,0.8-3.2c0-3.1-1.1-5.2-3.2-6.2
		c-2.2-1-5.1-1.5-9-1.5H36l3.2-21.5h9.1c1.5,0,3-0.1,4.5-0.4s2.8-0.7,3.9-1.3c1.1-0.6,2-1.4,2.8-2.3c0.7-1,1.1-2.2,1.1-3.6
		c0-2.3-0.7-3.8-2-4.7c-1.3-0.9-2.9-1.3-4.7-1.3c-2.3,0-4.4,0.7-6.3,2c-1.9,1.4-3.2,3.2-3.9,5.4l-24.3-7.3c1.5-4.4,3.5-8.3,6.1-11.5
		s5.4-5.9,8.6-8c3.2-2.1,6.6-3.6,10.3-4.6c3.7-1,7.5-1.5,11.4-1.5c3.7,0,7.6,0.4,11.4,1.2c3.9,0.8,7.4,2.3,10.5,4.3
		c3.1,2.1,5.6,4.9,7.6,8.4s2.9,7.9,2.9,13.1c0,3-0.5,5.7-1.6,8.1c-1,2.4-2.3,4.5-3.9,6.3c-1.6,1.8-3.3,3.2-5.1,4.3
		c-1.9,1.1-3.7,1.9-5.4,2.3l-0.1,0.5c3.7,1.5,6.7,4,8.7,7.4C82.8,59.5,83.8,63.6,83.9,68.3z"/>
	<path class="st0" d="M194.8,0.2c6.4,0,11.9,1.1,16.3,3.3c4.4,2.2,8,5,10.7,8.5s4.7,7.5,5.9,11.9c1.2,4.5,1.8,8.9,1.8,13.4
		s-0.3,9.3-1,14.2s-1.8,9.7-3.2,14.5c-1.5,4.8-3.4,9.3-5.8,13.6c-2.4,4.3-5.2,8.1-8.5,11.4c-3.3,3.3-7.1,5.9-11.5,7.8
		c-4.4,1.9-9.3,2.9-14.9,2.9c-6.5,0-12-1.1-16.5-3.3s-8.1-5-10.9-8.5c-2.8-3.5-4.8-7.4-5.9-11.9c-1.2-4.4-1.8-8.9-1.8-13.4
		s0.3-9.3,1-14.2c0.7-4.9,1.8-9.7,3.3-14.5s3.4-9.3,5.8-13.6c2.4-4.3,5.2-8.1,8.6-11.4c3.3-3.3,7.2-5.9,11.6-7.8
		C184.1,1.1,189.1,0.2,194.8,0.2z M192.4,26.3c-2.4,0-4.5,1.1-6.4,3.3c-1.9,2.2-3.5,5.1-4.8,8.5s-2.3,7.1-2.9,11.1
		c-0.7,4-1,7.8-1,11.3c0,4,0.7,7.4,2,10.2s3.4,4.2,6.3,4.2c2.3,0,4.3-1.1,6.2-3.2c1.8-2.1,3.4-4.9,4.7-8.2s2.3-7,2.9-11.1
		c0.7-4.1,1-8,1-11.8c0-4-0.6-7.4-1.8-10.2C197.4,27.7,195.4,26.3,192.4,26.3z"/>
	<polygon class="st0" points="119.3,0.2 95.3,15.1 103.6,39.5 113.8,33.1 113.6,34.1 103.2,101.9 131.7,101.8 147.4,0.2 	"/>
	<g>
		<polygon class="st1" points="65.4,141.6 88.2,141.6 93,110 70.3,110 		"/>
		<polygon class="st2" points="97.2,141.6 125.6,141.6 130.5,110 102,110 		"/>
		<polygon class="st3" points="39,141.6 56.5,141.6 61.3,110 43.8,110 		"/>
		<polygon class="st4" points="0,141.6 8.8,141.6 13.6,110 4.8,110 		"/>
		<polygon class="st5" points="17.6,141.6 30.3,141.6 35.1,110 22.4,110 		"/>
		<polygon class="st6" points="134.4,141.6 165.8,141.6 170.6,110 139.2,110 		"/>
		<polygon class="st0" points="174.5,141.6 214.5,141.6 219.3,110 179.3,110 		"/>
	</g>
</g>
</svg>
