<svg id="Cart-icon" xmlns="http://www.w3.org/2000/svg" width="22.768" height="21.024" viewBox="0 0 22.768 21.024">
  <path id="Path_24" data-name="Path 24" d="M23.128,19.752H8.251a.875.875,0,0,1,0-1.75H23.128A.875.875,0,0,0,24,17.284l1.75-9.626a.875.875,0,0,0-.875-1.033H6.894L6.5,4.691A.875.875,0,0,0,5.625,4H3.875a.875.875,0,1,0,0,1.75H4.917l2.3,10.72A2.625,2.625,0,0,0,8.251,21.5H9.283a2.625,2.625,0,1,0,4.936,0h2.94a2.625,2.625,0,1,0,4.936,0h1.033a.875.875,0,0,0,0-1.75Zm.7-11.377L22.4,16.252H8.96L7.271,8.376Zm-11.2,14a.875.875,0,1,1-.875-.875A.875.875,0,0,1,12.626,22.378Zm7.876,0a.875.875,0,1,1-.875-.875A.875.875,0,0,1,20.5,22.378Z" transform="translate(-3 -4)" fill="#585a5d"/>
</svg>
